<?xml version="1.0" encoding="UTF-8"?>
<svg id="Layer_2" data-name="Layer 2" xmlns="http://www.w3.org/2000/svg" width="574" height="46" viewBox=" 0 0 500 46" fill="none">
  <defs>
    <style>
      .cls-1 {
        fill: #90775D;
      }

      .cls-2 {
        fill: #3e1415;
      }
    </style>
  </defs>
  <g id="Layer_1-2" data-name="Layer 1">
    <g>
      <g>
        <path class="cls-2" d="m29.1.24v4.24h-12.31v26.98h-4.56V4.4H0V.24h29.1Z"/>
        <path class="cls-2" d="m69.55,31.45h-4.56v-13.84h-17.62v13.84h-4.56V.24h4.56v13.22h17.62V.24h4.56v31.22Z"/>
        <path class="cls-2" d="m112.66,4.4h-19.79v8.97h13.88v4.24h-13.88v9.6h19.79v4.24h-24.35V.24h24.35v4.24-.08Z"/>
        <path class="cls-2" d="m147.95,31.45V.24h4.64l12.82,13.41L178.22.24h4.57v31.22h-4.56V6.9l-10.3,10.72h-4.97l-10.36-10.76v24.6h-4.64Z"/>
        <path class="cls-2" d="m225.83,4.4h-19.79v8.97h13.88v4.24h-13.88v9.6h19.79v4.24h-24.35V.24h24.35v4.24-.08Z"/>
        <path class="cls-2" d="m267.15,27.21v4.24h-24.03V.24h4.56v26.98h19.46Z"/>
        <path class="cls-2" d="m307.66,25.95v-10.69h4.56v13.53c-5.19,2.28-9.83,2.83-13.76,2.83-9.75,0-17.07-4.96-17.07-15.81s7.31-15.81,17.07-15.81c4.09,0,7.86.55,10.7,1.57l-1.18,4.09c-1.97-.55-6.29-1.41-9.52-1.41-8.26,0-12.35,3.94-12.35,11.56s4.09,11.48,12.35,11.48c3.7,0,6.92-.63,9.28-1.34h-.08Z"/>
        <path class="cls-2" d="m357.1,31.45h-6.06l-6.61-8.65h-9.6v8.57h-4.56V.24h12.27c7.79,0,14.86,2.51,14.86,11.4,0,6.06-3.3,9.05-7.86,10.39l7.55,9.44Zm-14.55-12.82c6.37,0,10.15-1.81,10.15-7s-3.77-7.24-10.15-7.24h-7.71v14.23h7.71Z"/>
        <path class="cls-2" d="m395.52,31.45l-2.28-6.69h-14l-2.28,6.69h-4.88l11.17-30.83,6.06-.31,11.17,31.14h-4.95Zm-14.79-10.85h11.09l-5.51-16.44-5.58,16.44Z"/>
        <path class="cls-2" d="m436.38,31.45l-15.81-24.61.31,24.61h-4.56V.24h5.74l16.99,26.42-.31-26.42h4.56v31.22h-6.92Z"/>
        <path class="cls-2" d="m460.18,15.88c0-10.86,7.47-15.81,17.22-15.81s17.22,4.95,17.22,15.81-7.47,15.81-17.22,15.81-17.22-4.96-17.22-15.81Zm4.8,0c0,6.29,3.15,11.4,12.43,11.4s12.5-5.11,12.5-11.4-3.15-11.41-12.5-11.41-12.43,5.11-12.43,11.41Z"/>
      </g>
      <g>
        <path class="cls-1" d="m29.1.24v4.24h-12.31v26.98h-4.56V4.4H0V.24h29.1Z"/>
        <path class="cls-1" d="m69.55,31.45h-4.56v-13.84h-17.62v13.84h-4.56V.24h4.56v13.22h17.62V.24h4.56v31.22Z"/>
        <path class="cls-1" d="m112.66,4.4h-19.79v8.97h13.88v4.24h-13.88v9.6h19.79v4.24h-24.35V.24h24.35v4.24-.08Z"/>
        <path class="cls-1" d="m147.95,31.45V.24h4.64l12.82,13.41L178.22.24h4.57v31.22h-4.56V6.9l-10.3,10.72h-4.97l-10.36-10.76v24.6h-4.64Z"/>
        <path class="cls-1" d="m225.83,4.4h-19.79v8.97h13.88v4.24h-13.88v9.6h19.79v4.24h-24.35V.24h24.35v4.24-.08Z"/>
        <path class="cls-1" d="m267.15,27.21v4.24h-24.03V.24h4.56v26.98h19.46Z"/>
        <path class="cls-1" d="m307.66,25.95v-10.69h4.56v13.53c-5.19,2.28-9.83,2.83-13.76,2.83-9.75,0-17.07-4.96-17.07-15.81s7.31-15.81,17.07-15.81c4.09,0,7.86.55,10.7,1.57l-1.18,4.09c-1.97-.55-6.29-1.41-9.52-1.41-8.26,0-12.35,3.94-12.35,11.56s4.09,11.48,12.35,11.48c3.7,0,6.92-.63,9.28-1.34h-.08Z"/>
        <path class="cls-1" d="m357.1,31.45h-6.06l-6.61-8.65h-9.6v8.57h-4.56V.24h12.27c7.79,0,14.86,2.51,14.86,11.4,0,6.06-3.3,9.05-7.86,10.39l7.55,9.44Zm-14.55-12.82c6.37,0,10.15-1.81,10.15-7s-3.77-7.24-10.15-7.24h-7.71v14.23h7.71Z"/>
        <path class="cls-1" d="m395.52,31.45l-2.28-6.69h-14l-2.28,6.69h-4.88l11.17-30.83,6.06-.31,11.17,31.14h-4.95Zm-14.79-10.85h11.09l-5.51-16.44-5.58,16.44Z"/>
        <path class="cls-1" d="m436.38,31.45l-15.81-24.61.31,24.61h-4.56V.24h5.74l16.99,26.42-.31-26.42h4.56v31.22h-6.92Z"/>
        <path class="cls-1" d="m460.18,15.88c0-10.86,7.47-15.81,17.22-15.81s17.22,4.95,17.22,15.81-7.47,15.81-17.22,15.81-17.22-4.96-17.22-15.81Zm4.8,0c0,6.29,3.15,11.4,12.43,11.4s12.5-5.11,12.5-11.4-3.15-11.41-12.5-11.41-12.43,5.11-12.43,11.41Z"/>
      </g>
    </g>
  </g>
</svg>